<?xml version="1.0" standalone="no"?>
<!DOCTYPE svg PUBLIC "-//W3C//DTD SVG 20010904//EN"
 "http://www.w3.org/TR/2001/REC-SVG-20010904/DTD/svg10.dtd">
<svg version="1.0" xmlns="http://www.w3.org/2000/svg"
 width="459.000000pt" height="145.000000pt" viewBox="0 0 459.000000 145.000000"
 preserveAspectRatio="xMidYMid meet">

<g transform="translate(0.000000,145.000000) scale(0.100000,-0.100000)"
fill="#000000" stroke="none">
<path d="M611 1400 c-198 -42 -352 -144 -459 -304 -172 -257 -143 -613 70
-841 109 -116 221 -179 380 -211 137 -28 310 -4 438 61 168 85 305 257 356
446 23 86 23 252 0 338 -51 189 -188 361 -356 446 -117 59 -315 89 -429 65z
m260 -136 c193 -57 339 -201 395 -389 26 -89 24 -251 -4 -329 -66 -183 -218
-324 -398 -370 -280 -72 -576 90 -669 367 -33 99 -35 251 -5 349 52 170 207
319 384 369 79 23 225 24 297 3z"/>
<path d="M603 1205 c-159 -43 -287 -155 -344 -303 -31 -79 -38 -236 -14 -318
61 -213 260 -364 480 -364 302 0 539 273 496 568 -44 296 -336 493 -618 417z
m134 -213 c23 -14 334 -505 331 -521 -2 -10 -13 -16 -28 -16 -21 0 -45 32
-169 223 -113 174 -147 220 -156 210 -6 -7 -72 -109 -146 -225 -133 -212 -151
-232 -179 -198 -10 12 12 52 126 232 204 324 195 312 221 295z"/>
<path d="M3887 836 c-49 -18 -67 -34 -84 -75 -28 -66 7 -121 109 -171 39 -19
54 -33 56 -50 8 -49 -55 -65 -123 -30 -22 11 -41 20 -42 20 -5 0 -43 -64 -43
-71 0 -17 103 -49 155 -49 102 0 155 44 155 129 0 52 -27 82 -109 124 -74 37
-92 57 -71 82 11 13 25 16 60 12 25 -2 52 -8 61 -11 11 -5 20 4 32 29 l17 36
-32 13 c-54 22 -101 26 -141 12z"/>
<path d="M1504 823 c3 -10 28 -99 56 -198 28 -99 53 -188 56 -198 5 -15 15
-17 57 -15 l51 3 17 60 c10 33 25 86 34 118 9 32 19 56 22 53 3 -3 20 -56 38
-118 l32 -113 51 -3 51 -3 20 68 c45 155 101 352 101 357 0 3 -22 6 -49 6
l-49 0 -37 -151 c-23 -93 -41 -146 -46 -137 -4 7 -17 52 -29 98 -48 191 -48
190 -85 190 -36 0 -28 20 -92 -222 -9 -38 -20 -68 -24 -68 -4 0 -19 48 -33
108 -51 204 -40 182 -97 182 -43 0 -50 -2 -45 -17z"/>
<path d="M2230 625 l0 -215 45 0 45 0 0 90 c0 50 3 90 8 90 4 -1 41 -41 82
-90 l75 -89 64 0 64 -1 -19 23 c-11 12 -55 61 -97 108 -42 48 -77 91 -77 95 0
5 27 41 61 79 33 39 69 82 80 98 l20 27 -53 0 -53 0 -70 -85 c-38 -46 -73 -85
-77 -85 -5 0 -8 38 -8 85 l0 85 -45 0 -45 0 0 -215z"/>
<path d="M2805 673 c-37 -93 -76 -189 -86 -215 l-19 -48 49 0 c49 0 49 0 64
43 l14 42 88 0 88 0 15 -42 c14 -43 14 -43 63 -43 l49 0 -19 48 c-10 26 -49
122 -86 215 l-67 167 -43 0 -43 0 -67 -167z m144 -41 l21 -52 -55 0 -55 0 21
53 c12 28 24 58 27 66 6 16 12 8 41 -67z"/>
<path d="M3376 808 c-73 -175 -156 -383 -156 -390 0 -5 21 -8 48 -6 46 3 47 4
62 46 l14 42 86 0 86 0 15 -42 c15 -41 18 -43 62 -46 26 -2 47 1 47 6 0 5 -37
101 -83 213 l-83 204 -42 3 c-40 3 -43 1 -56 -30z m78 -150 c10 -29 21 -59 23
-65 4 -10 -9 -13 -47 -13 -38 0 -51 3 -47 13 2 6 13 36 23 65 10 28 21 52 24
52 3 0 14 -24 24 -52z"/>
<path d="M4230 625 l0 -215 45 0 44 0 3 88 3 87 73 3 72 3 0 -91 0 -90 45 0
45 0 0 215 0 215 -45 0 -45 0 0 -85 0 -85 -75 0 -75 0 0 85 0 85 -45 0 -45 0
0 -215z"/>
</g>
</svg>
