<?xml version="1.0" standalone="no"?>
<!DOCTYPE svg PUBLIC "-//W3C//DTD SVG 20010904//EN"
 "http://www.w3.org/TR/2001/REC-SVG-20010904/DTD/svg10.dtd">
<svg version="1.0" xmlns="http://www.w3.org/2000/svg"
 width="145.000000pt" height="145.000000pt" viewBox="0 0 145.000000 145.000000"
 preserveAspectRatio="xMidYMid meet">

<g transform="translate(0.000000,145.000000) scale(0.100000,-0.100000)"
fill="#2E294E" stroke="none">
<path fill="#1B998B" d="M611 1410 c-198 -42 -352 -144 -459 -304 -172 -257 -143 -613 70
-841 109 -116 221 -179 380 -211 137 -28 310 -4 438 61 168 85 305 257 356
446 23 86 23 252 0 338 -51 189 -188 361 -356 446 -117 59 -315 89 -429 65z
m260 -136 c193 -57 339 -201 395 -389 26 -89 24 -251 -4 -329 -66 -183 -218
-324 -398 -370 -280 -72 -576 90 -669 367 -33 99 -35 251 -5 349 52 170 207
319 384 369 79 23 225 24 297 3z"/>
<path d="M603 1215 c-159 -43 -287 -155 -344 -303 -31 -79 -38 -236 -14 -318
61 -213 260 -364 480 -364 302 0 539 273 496 568 -44 296 -336 493 -618 417z
m134 -213 c23 -14 334 -505 331 -521 -2 -10 -13 -16 -28 -16 -21 0 -45 32
-169 223 -113 174 -147 220 -156 210 -6 -7 -72 -109 -146 -225 -133 -212 -151
-232 -179 -198 -10 12 12 52 126 232 204 324 195 312 221 295z"/>
</g>
</svg>
